<svg width="55" height="55" viewBox="0 0 55 55" fill="none" xmlns="http://www.w3.org/2000/svg">
<rect width="55" height="55" fill="#1E1E1E"/>
<rect width="1600" height="1100" transform="translate(-1311 -746)" fill="#2D2D2D"/>
<g filter="url(#filter0_d_0_1)">
<g clip-path="url(#clip0_0_1)">
<rect x="-1151" y="-575" width="1280" height="720" rx="30" fill="#1E1E1E"/>
<path d="M45.913 0H9.08696C4.06522 0 0 4.06522 0 9.08696V45.913C0 50.9348 4.06522 55 9.08696 55H45.913C50.9348 55 55 50.9348 55 45.913V9.08696C55 4.06522 50.9348 0 45.913 0ZM36.3375 47.407C34.9433 48.0758 33.1369 48.9195 32.0435 47.8261C31.5652 47.3478 31.3261 46.8696 31.3261 46.1522V40.6522C31.3261 38.7391 30.6087 38.0217 30.3696 37.7826C30.1304 37.5435 29.8913 37.0652 30.1304 36.587C30.3696 36.1087 30.6087 35.8696 31.087 35.8696C35.3913 35.3913 39.2174 33.9565 39.2174 27.0217C39.2174 25.1087 38.7391 23.6739 37.5435 22.4783C37.391 22.3257 37.2871 22.1732 37.2163 22.0207C36.9402 21.4255 37.0892 21.1322 37.2703 20.5015C37.7565 18.8081 35.8839 17.3823 34.3634 18.2721C34.0452 18.4583 33.6986 18.673 33.3203 18.9193C33.107 19.0582 32.8974 19.2477 32.6511 19.3123C32.2493 19.4177 31.8439 19.2978 31.4435 19.1872C30.1519 18.8305 28.7064 18.6522 27.2609 18.6522C25.8303 18.6522 24.3997 18.8268 23.1184 19.1761C22.691 19.2927 22.2515 19.4286 21.8274 19.3001C21.6102 19.2343 21.4294 19.0628 21.2415 18.9354C20.8329 18.6583 20.4408 18.4247 20.0723 18.2308C18.7617 17.5412 17.3784 18.4843 17.5211 19.9583C17.5308 20.0585 17.5418 20.1543 17.5534 20.2456C17.6384 20.9109 18.1699 21.7649 17.6957 22.2391C16.5 23.4348 16.0217 25.1087 16.0217 26.7826C16.0217 33.7174 20.087 35.1522 24.1522 35.6304C24.181 35.6304 24.2095 35.6316 24.2375 35.6339C25.3599 35.7242 25.039 37.7826 23.913 37.7826C19.6087 37.3043 13.6304 35.6304 13.6304 26.7826C13.6304 26.0551 13.7124 25.3549 13.8671 24.682C14.4231 22.2643 14.7704 19.4995 15.3605 17.0899C15.422 16.8387 15.4968 16.5801 15.5864 16.3147C15.7059 15.9605 15.9189 15.6463 16.1833 15.382C16.393 15.1722 16.6361 14.9879 16.9299 14.9469C17.2118 14.9076 17.604 14.9055 18.1114 14.9943C21.1119 15.519 24.2148 16.5 27.2609 16.5C27.8406 16.5 28.4204 16.5287 28.9902 16.5761C30.9683 16.7408 32.9325 16.3008 34.7692 15.5482C35.7203 15.1585 36.4572 14.9901 36.9892 14.939C37.6654 14.874 38.4353 15.175 38.7391 15.7826C40.0672 19.1027 40.9107 22.9057 41.1149 26.4757C41.1252 26.656 41.1304 26.838 41.1304 27.0217C41.1304 32.9069 38.5844 35.6803 35.5593 36.9737C34.1451 37.5784 33.2391 39.1141 33.2391 40.6522C33.2391 43.2297 35.8025 45.0144 37.9125 43.5342C42.8703 40.0563 45.913 34.3071 45.913 27.9783C45.913 17.4565 37.5435 9.08696 27.0217 9.08696C16.5 9.08696 8.13043 17.6957 8.13043 27.9783C8.13043 34.9201 11.9656 41.339 17.8498 44.5558C18.6339 44.9844 20.8107 43.5557 20.8062 42.6621C20.8038 42.1899 20.4215 41.6087 19.9493 41.6087H19.8478C16.2609 41.6087 14.3478 39.2174 13.8696 37.7826C13.6895 37.2425 13.9161 36.8379 14.2432 36.5689C14.4538 36.3957 14.775 36.2638 15.0465 36.2882C15.9376 36.3681 16.1137 37.5733 16.7778 38.1726C17.5515 38.8708 19.0054 39.5374 21.5217 38.9783C22.7492 38.5691 22.9565 40.5944 22.9565 41.8883V45.913C22.9565 46.6304 22.7174 47.1087 22.2391 47.587C22 47.8261 21.5217 48.0652 20.8043 48.0652C20.4875 48.0652 20.1711 48.0168 19.8719 47.9124C11.2824 44.9154 5.73913 36.9047 5.73913 27.7391C5.73913 16.0217 15.3043 6.45652 27.0217 6.45652C38.7391 6.45652 48.3043 16.0217 48.3043 27.7391C48.7418 36.489 43.7767 43.8381 36.3375 47.407Z" fill="white"/>
</g>
<rect x="-1150.5" y="-574.5" width="1279" height="719" rx="29.5" stroke="#AAAAAA"/>
</g>
<defs>
<filter id="filter0_d_0_1" x="-1176" y="-596" width="1330" height="770" filterUnits="userSpaceOnUse" color-interpolation-filters="sRGB">
<feFlood flood-opacity="0" result="BackgroundImageFix"/>
<feColorMatrix in="SourceAlpha" type="matrix" values="0 0 0 0 0 0 0 0 0 0 0 0 0 0 0 0 0 0 127 0" result="hardAlpha"/>
<feOffset dy="4"/>
<feGaussianBlur stdDeviation="12.5"/>
<feComposite in2="hardAlpha" operator="out"/>
<feColorMatrix type="matrix" values="0 0 0 0 0.117647 0 0 0 0 0.117647 0 0 0 0 0.117647 0 0 0 1 0"/>
<feBlend mode="normal" in2="BackgroundImageFix" result="effect1_dropShadow_0_1"/>
<feBlend mode="normal" in="SourceGraphic" in2="effect1_dropShadow_0_1" result="shape"/>
</filter>
<clipPath id="clip0_0_1">
<rect x="-1151" y="-575" width="1280" height="720" rx="30" fill="white"/>
</clipPath>
</defs>
</svg>
